PathFileType	4	(X/Y/Z)	4_coords_data.trc
DataRate	CameraRate	NumFrames	NumMarkers	Units	OrigDataRate	OrigDataStartFrame	OrigNumFrames
30.0	30.0	7	21	m	30.0	20	57
Frame#	Time	THUMB_TIP	THUMB_IP	THUMB_MCP	THUMB_CMC	INDEX_TIP	INDEX_DIP	INDEX_PIP	INDEX_MCP	MIDDLE_TIP	MIDDLE_DIP	MIDDLE_PIP	MIDDLE_MCP	RING_TIP	RING_DIP	RING_PIP	RING_MCP	PINKY_TIP	PINKY_DIP	PINKY_PIP	PINKY_MCP	WRIST
X1	Y1	Z1	X2	Y2	Z2	X3	Y3	Z3	X4	Y4	Z4	X5	Y5	Z5	X6	Y6	Z6	X7	Y7	Z7	X8	Y8	Z8	X9	Y9	Z9	X10	Y10	Z10	X11	Y11	Z11	X12	Y12	Z12	X13	Y13	Z13	X14	Y14	Z14	X15	Y15	Z15	X16	Y16	Z16	X17	Y17	Z17	X18	Y18	Z18	X19	Y19	Z19	X20	Y20	Z20	X21	Y21	Z21
18	0.6333333333333304	0.5323672037244483	-0.013226917157429297	-0.09866298497337136	0.5151555015423124	-0.014507129848669864	-0.11383263768721574	0.4844562265224358	-0.016408522380133905	-0.1186033000830762	0.47799464259391866	-0.02664022947369815	-0.07566788226647356	0.494525571101576	-0.008282361397437876	-0.10658170944622192	0.5111018713477532	-0.009215835508296188	-0.1138173777797584	0.5274225969126852	0.008666465774624266	-0.12058989953026131	0.49529168334227336	0.03275020052925948	-0.10640490015066645	0.49786252040230605	-0.021414575853144657	-0.10002789776683535	0.5142860030767509	-0.014662872716591502	-0.0964664764777898	0.53772799672455	0.0020557511190940625	-0.10097980128965456	0.5097749629275763	0.033676578869771046	-0.08632036491211055	0.5279962280354374	-0.009299939358783593	-0.09026686285684427	0.516155588296623	-0.016279115358983742	-0.07860108586026829	0.5399979999093261	-0.010267008287741963	-0.08254747104856006	0.5247349419102414	0.024369388573239892	-0.06833198980432639	0.504069989860381	-0.020556790860452923	-0.058891244393514355	0.518654629006593	-0.026664509742401754	-0.06544746823303252	0.5388521460941802	-0.02093869450201613	-0.06515189704094526	0.5285489933761452	0.009464550929020432	-0.04870893008455297	0.462283081001861	-0.023011742144276925	-0.051989820119430985
19	0.6666666666666637	0.5321920971025026	-0.012976474837441354	-0.09863962567761253	0.515016210740311	-0.014248127105939035	-0.11385053716184337	0.48432117371956473	-0.01622882844918261	-0.11861619813214827	0.47795105970030904	-0.026605820123439816	-0.07570198497177354	0.4943283177229242	-0.008174377677816036	-0.10655596577286175	0.5108760035859078	-0.009029550263702668	-0.11386642214906421	0.5271988834553184	0.00884081923225677	-0.12066519555657487	0.49509123811130595	0.03289492872681332	-0.10637761280486333	0.4977377048940139	-0.02124841665102506	-0.10027132263767127	0.5140981463775072	-0.01444641168671601	-0.09652049833750638	0.5375610781996056	0.0022387134425919664	-0.1010489616233124	0.5096179140602171	0.03382376541406662	-0.08629389500745321	0.528072263973073	-0.009298092107122846	-0.09012654357001537	0.5159845172331494	-0.016149490018490198	-0.07863982404651436	0.5398327404980874	-0.01020267271083708	-0.08264951106859858	0.5246694020060615	0.024446481290449018	-0.06835860043381349	0.50400867481929	-0.02044935998404218	-0.05886712872037202	0.5185184857727358	-0.026646011590804042	-0.0655054187833085	0.5387223645557431	-0.020939496134694147	-0.06527962580128478	0.5285460291293984	0.009478129195883866	-0.04878436231326791	0.462283081001861	-0.023011742144276925	-0.051989820119430985
20	0.6999999999999968	0.5320691694910932	-0.012493372220666044	-0.09869515201235962	0.5148820618049822	-0.013827206465243713	-0.11388805218296619	0.48419485554794595	-0.01598777567200671	-0.11862591170398483	0.4779241764861196	-0.026514120264592433	-0.0757334338830229	0.49405719382313973	-0.008069321704534449	-0.10643917565725375	0.5105371613637382	-0.008679924423838137	-0.11392501790646015	0.5268628143444031	0.00916031457853006	-0.12079588103224681	0.49476008963879425	0.03312183971705862	-0.106342629719426	0.497674609157685	-0.021099517677517388	-0.10056910530769692	0.5138841668795241	-0.014071864454631156	-0.09658635140603186	0.537333124354783	0.0026169599488709006	-0.10117318946209808	0.5093270781588994	0.034077653776310224	-0.08627238272654951	0.5279046207638097	-0.008971546104737826	-0.09009837295235723	0.5157729757457307	-0.01584387449510627	-0.07867058700536579	0.5396063601293425	-0.00991189100660328	-0.08278900171434529	0.5244705618638149	0.02469983682505439	-0.06837870187803011	0.5039422551522754	-0.02013933891462194	-0.05886535744186561	0.5183822864125222	-0.026413627442000043	-0.06558241041756141	0.5385694828851979	-0.020644916914411615	-0.06547707085956175	0.5284313244301468	0.00971819230094273	-0.048858322624007314	0.4622830810018608	-0.023011742144276925	-0.051989820119430985
21	0.7333333333333302	0.5320232024398981	-0.011823412188765592	-0.09896715827102581	0.5147447035919529	-0.01329882858530429	-0.11404285473979248	0.4840579523652051	-0.01572898754601504	-0.11865128468646287	0.4779155830349868	-0.026347781351828137	-0.07576302851859308	0.4936787112173112	-0.007827951419779433	-0.10618587800713969	0.5100441554520061	-0.008128827532070004	-0.11393711717040533	0.5263948331502631	0.009625435160481421	-0.12096928099469159	0.4942954570893252	0.03344785506713954	-0.10628056218434809	0.4975663067551438	-0.020627615093122387	-0.10100574498511813	0.513615290907564	-0.013470473887678747	-0.09662334410880596	0.5370285045304932	0.0032277582910453795	-0.10135621004315326	0.5088890406943071	0.034461044451406964	-0.08623006275982492	0.5275907493396441	-0.008124597224416163	-0.09012608440686246	0.5156112171381299	-0.015241605065529518	-0.07868759641139647	0.5393997038051679	-0.009239919467980862	-0.08296166368746313	0.5240897984895989	0.025205644884533918	-0.0683387115345947	0.5039701282975844	-0.019595867161491975	-0.05889982407427086	0.5183985314465522	-0.02580934414794489	-0.06569790367881151	0.5385276937443139	-0.019840414067645362	-0.06572469708972362	0.5281397700718049	0.010300952187455525	-0.048858383531331734	0.4622830810018609	-0.023011742144276925	-0.051989820119430985
22	0.7666666666666633	0.532130518326444	-0.011083336350920181	-0.09962494479394449	0.5146012719469738	-0.012693917901984708	-0.11439422197447026	0.4838970749746724	-0.015458577451550326	-0.11868711678579588	0.47794435520675005	-0.02609955991995261	-0.07577762343675085	0.49331079342899253	-0.007639515478047421	-0.10579426614983142	0.5095212776252712	-0.007397823221008126	-0.1138665512646603	0.525859181213688	0.010266522871681394	-0.12115034261623567	0.4937461131235522	0.03387736949574338	-0.10615318043356525	0.4971620839658766	-0.01960276885196377	-0.10057262890428362	0.5134466151441247	-0.012729739042345312	-0.09662604740369798	0.5367175197493876	0.004095675982941693	-0.10160399457895009	0.5083572895706469	0.03495234172151851	-0.08612137707716494	0.5269737930264198	-0.006678112127516345	-0.09034143274762173	0.5155948794207194	-0.014374312951604185	-0.07866715255442276	0.5392793616619643	-0.008120826153826144	-0.08315259376283995	0.5235208058933101	0.025975292041620412	-0.06819119415958252	0.504138071585926	-0.018910315136077327	-0.05903857973406071	0.5186923003446152	-0.02479957421144019	-0.06585701450921262	0.5386982758547424	-0.018431317385049217	-0.06599217323561374	0.5276463578825803	0.011247139324904731	-0.04873158902035625	0.4622830810018609	-0.023011742144276925	-0.051989820119430985
23	0.7999999999999965	0.5323376993862002	-0.010344287203545854	-0.10072934773516269	0.5143975838564337	-0.01207143361315155	-0.11498309180675373	0.483650567154734	-0.01517234657103006	-0.11870133101006633	0.47804054921575456	-0.025823778757817828	-0.07574827883569114	0.4933211009316517	-0.007451645849514632	-0.10536167502525748	0.5093393185991753	-0.0066887177689779476	-0.11377800697568373	0.5254408361049251	0.01106776717623037	-0.12135812632847905	0.49328165749650543	0.034338502639965074	-0.10593424237505622	0.49674582189186434	-0.018203234156218828	-0.09888321163774472	0.513624440054576	-0.012022337365969471	-0.09666763862254832	0.5365405905657118	0.005196062544726043	-0.10193890984174522	0.5078498361100886	0.03546860866494883	-0.08592137316577267	0.5259571856285773	-0.004604006094967472	-0.09085167061315962	0.515964589671856	-0.013488582729447196	-0.07875984179896539	0.5394369733995834	-0.006572870540055398	-0.083385866663989	0.522847346217481	0.026895054881408642	-0.06791321104376119	0.5046243897751926	-0.018126630555258982	-0.059399616245716276	0.5193940571535327	-0.023523093152087338	-0.06616239060053737	0.539172321619298	-0.016478633996232617	-0.0662510975548351	0.5269949540211978	0.01243622323313276	-0.048459914323072215	0.4622830810018609	-0.023011742144276925	-0.051989820119430985
24	0.8333333333333297	0.532822667050286	-0.009582916173137224	-0.1025120417350374	0.514234710149817	-0.011446768517548223	-0.11589164982737488	0.4834239541623938	-0.01483428087402694	-0.1187275051689195	0.4781039434655632	-0.025503261584826964	-0.07574192227443981	0.4939823965154493	-0.007332871320381518	-0.10507017842683318	0.509762095488456	-0.005949102616444102	-0.1138500579530736	0.5252578804451369	0.012237145115103099	-0.12166996044754845	0.4929157250487268	0.034823798904156766	-0.1056242710286454	0.49703872845362973	-0.016700751639871725	-0.09708452911318668	0.5143467770023604	-0.01137182019487315	-0.09690028718178392	0.5366159392295636	0.0066165786430861795	-0.10236942522584691	0.5074145473188669	0.035984737384821	-0.08560822349094264	0.5236240859530404	-0.0017210373485169184	-0.0917462250918395	0.5168478478127969	-0.01263178201144799	-0.07909560267367241	0.5399778989829866	-0.0045908294755384604	-0.08362592210828779	0.5221226840423348	0.02789469178303594	-0.06748271790398461	0.5054372392716193	-0.01725488825430921	-0.060067633900135954	0.520500855217414	-0.022035686077507055	-0.06664269639499507	0.5399193123636035	-0.014055396832148737	-0.06641791956785387	0.526216946612835	0.013775930912402923	-0.0480183049032063	0.4622830810018609	-0.023011742144276925	-0.051989820119430985
